<?xml version="1.0" encoding="UTF-8" standalone="no"?><!DOCTYPE svg PUBLIC "-//W3C//DTD SVG 1.1//EN" "http://www.w3.org/Graphics/SVG/1.1/DTD/svg11.dtd"><!-- Generated by graphviz version 2.40.1 (20161225.0304)
 --><!-- Title: G Pages: 1 --><svg xmlns="http://www.w3.org/2000/svg" xmlns:xlink="http://www.w3.org/1999/xlink" width="1998pt" height="1189pt" viewBox="0.00 0.00 1998.00 1189.40">
<g id="graph0" class="graph" transform="scale(1 1) rotate(0) translate(4 1185.4)">
<title>G</title>
<polygon fill="#ffffff" stroke="transparent" points="-4,4 -4,-1185.4 1994,-1185.4 1994,4 -4,4"/>
<g id="clust1" class="cluster">
<title>cluster_embedding_worker</title>
<polygon fill="none" stroke="#000000" points="8,-8 8,-972.4 1982,-972.4 1982,-8 8,-8"/>
<text text-anchor="middle" x="995" y="-955.8" font-family="Times,serif" font-size="14.00" fill="#000000">embedding_worker</text>
</g>
<!-- A -->
<g id="node1" class="node">
<title>A</title>
<polygon fill="none" stroke="#000000" points="568,-1181.4 514,-1181.4 514,-1145.4 568,-1145.4 568,-1181.4"/>
<text text-anchor="middle" x="541" y="-1159.2" font-family="Times,serif" font-size="14.00" fill="#000000">Start</text>
</g>
<!-- B -->
<g id="node2" class="node">
<title>B</title>
<polygon fill="none" stroke="#000000" points="595.1313,-1108.4 486.8687,-1108.4 486.8687,-1072.4 595.1313,-1072.4 595.1313,-1108.4"/>
<text text-anchor="middle" x="541" y="-1086.2" font-family="Times,serif" font-size="14.00" fill="#000000">Import Libraries</text>
</g>
<!-- A&#45;&gt;B -->
<g id="edge23" class="edge">
<title>A-&gt;B</title>
<path fill="none" stroke="#000000" d="M541,-1145.3551C541,-1137.2828 541,-1127.5764 541,-1118.5817"/>
<polygon fill="#000000" stroke="#000000" points="544.5001,-1118.4903 541,-1108.4904 537.5001,-1118.4904 544.5001,-1118.4903"/>
</g>
<!-- C -->
<g id="node3" class="node">
<title>C</title>
<polygon fill="none" stroke="#000000" points="287.8402,-1035.4 16.1598,-1035.4 16.1598,-999.4 287.8402,-999.4 287.8402,-1035.4"/>
<text text-anchor="middle" x="152" y="-1013.2" font-family="Times,serif" font-size="14.00" fill="#000000">Define send_embedding_to_duckdb Function</text>
</g>
<!-- B&#45;&gt;C -->
<g id="edge24" class="edge">
<title>B-&gt;C</title>
<path fill="none" stroke="#000000" d="M486.9112,-1080.2497C427.9724,-1069.1892 332.2006,-1051.2166 258.1371,-1037.3178"/>
<polygon fill="#000000" stroke="#000000" points="258.7718,-1033.8759 248.2978,-1035.4713 257.4807,-1040.7558 258.7718,-1033.8759"/>
</g>
<!-- D -->
<g id="node4" class="node">
<title>D</title>
<polygon fill="none" stroke="#000000" points="533.9859,-1035.4 306.0141,-1035.4 306.0141,-999.4 533.9859,-999.4 533.9859,-1035.4"/>
<text text-anchor="middle" x="420" y="-1013.2" font-family="Times,serif" font-size="14.00" fill="#000000">Define generate_embedding Function</text>
</g>
<!-- B&#45;&gt;D -->
<g id="edge25" class="edge">
<title>B-&gt;D</title>
<path fill="none" stroke="#000000" d="M511.0899,-1072.3551C495.2375,-1062.7912 475.5828,-1050.9334 458.5929,-1040.6833"/>
<polygon fill="#000000" stroke="#000000" points="460.3559,-1037.6593 449.9854,-1035.4904 456.7398,-1043.653 460.3559,-1037.6593"/>
</g>
<!-- E -->
<g id="node5" class="node">
<title>E</title>
<polygon fill="none" stroke="#000000" points="772.0014,-1035.4 551.9986,-1035.4 551.9986,-999.4 772.0014,-999.4 772.0014,-1035.4"/>
<text text-anchor="middle" x="662" y="-1013.2" font-family="Times,serif" font-size="14.00" fill="#000000">Define embedding_request Function</text>
</g>
<!-- B&#45;&gt;E -->
<g id="edge26" class="edge">
<title>B-&gt;E</title>
<path fill="none" stroke="#000000" d="M570.9101,-1072.3551C586.7625,-1062.7912 606.4172,-1050.9334 623.4071,-1040.6833"/>
<polygon fill="#000000" stroke="#000000" points="625.2602,-1043.653 632.0146,-1035.4904 621.6441,-1037.6593 625.2602,-1043.653"/>
</g>
<!-- F -->
<g id="node6" class="node">
<title>F</title>
<polygon fill="none" stroke="#000000" points="990.271,-1035.4 789.729,-1035.4 789.729,-999.4 990.271,-999.4 990.271,-1035.4"/>
<text text-anchor="middle" x="890" y="-1013.2" font-family="Times,serif" font-size="14.00" fill="#000000">Define embedding_worker Class</text>
</g>
<!-- B&#45;&gt;F -->
<g id="edge27" class="edge">
<title>B-&gt;F</title>
<path fill="none" stroke="#000000" d="M595.1483,-1079.0738C648.034,-1068.0118 729.675,-1050.935 793.6518,-1037.5531"/>
<polygon fill="#000000" stroke="#000000" points="794.6894,-1040.9119 803.7609,-1035.4385 793.2562,-1034.0601 794.6894,-1040.9119"/>
</g>
<!-- G -->
<g id="node7" class="node">
<title>G</title>
<polygon fill="none" stroke="#000000" points="283.722,-939.6 174.278,-939.6 174.278,-903.6 283.722,-903.6 283.722,-939.6"/>
<text text-anchor="middle" x="229" y="-917.4" font-family="Times,serif" font-size="14.00" fill="#000000">__init__ Method</text>
</g>
<!-- F&#45;&gt;G -->
<g id="edge28" class="edge">
<title>F-&gt;G</title>
<path fill="none" stroke="#000000" d="M789.6769,-1000.4605C786.7549,-1000.0867 783.8578,-999.7319 781,-999.4 604.4477,-978.8968 556.4023,-1006.6777 382,-972.4 348.3203,-965.7805 311.7974,-953.8451 282.8844,-943.2061"/>
<polygon fill="#000000" stroke="#000000" points="283.9785,-939.8786 273.3859,-939.6573 281.5285,-946.4359 283.9785,-939.8786"/>
</g>
<!-- H -->
<g id="node8" class="node">
<title>H</title>
<polygon fill="none" stroke="#000000" points="584.6855,-939.6 391.3145,-939.6 391.3145,-903.6 584.6855,-903.6 584.6855,-939.6"/>
<text text-anchor="middle" x="488" y="-917.4" font-family="Times,serif" font-size="14.00" fill="#000000">sub_embedding_thread Method</text>
</g>
<!-- F&#45;&gt;H -->
<g id="edge29" class="edge">
<title>F-&gt;H</title>
<path fill="none" stroke="#000000" d="M789.6273,-1000.8153C786.7197,-1000.3379 783.8391,-999.8653 781,-999.4 707.2368,-987.3107 687.0219,-992.4003 615,-972.4 588.2531,-964.9725 559.4529,-953.7362 536.0512,-943.7181"/>
<polygon fill="#000000" stroke="#000000" points="537.2721,-940.4325 526.7055,-939.6598 534.4839,-946.8533 537.2721,-940.4325"/>
</g>
<!-- I -->
<g id="node9" class="node">
<title>I</title>
<polygon fill="none" stroke="#000000" points="736.3171,-939.6 623.6829,-939.6 623.6829,-903.6 736.3171,-903.6 736.3171,-939.6"/>
<text text-anchor="middle" x="680" y="-917.4" font-family="Times,serif" font-size="14.00" fill="#000000">do_work Method</text>
</g>
<!-- F&#45;&gt;I -->
<g id="edge30" class="edge">
<title>F-&gt;I</title>
<path fill="none" stroke="#000000" d="M850.5006,-999.3808C815.9986,-983.6413 765.7868,-960.7351 728.784,-943.8548"/>
<polygon fill="#000000" stroke="#000000" points="730.2294,-940.6672 719.6787,-939.7011 727.3241,-947.0358 730.2294,-940.6672"/>
</g>
<!-- J -->
<g id="node10" class="node">
<title>J</title>
<polygon fill="none" stroke="#000000" points="937.4348,-939.6 842.5652,-939.6 842.5652,-903.6 937.4348,-903.6 937.4348,-939.6"/>
<text text-anchor="middle" x="890" y="-917.4" font-family="Times,serif" font-size="14.00" fill="#000000">status Method</text>
</g>
<!-- F&#45;&gt;J -->
<g id="edge31" class="edge">
<title>F-&gt;J</title>
<path fill="none" stroke="#000000" d="M890,-999.3808C890,-985.5527 890,-966.193 890,-950.2477"/>
<polygon fill="#000000" stroke="#000000" points="893.5001,-949.8641 890,-939.8642 886.5001,-949.8642 893.5001,-949.8641"/>
</g>
<!-- K -->
<g id="node11" class="node">
<title>K</title>
<polygon fill="none" stroke="#000000" points="1326.8279,-939.6 1135.1721,-939.6 1135.1721,-903.6 1326.8279,-903.6 1326.8279,-939.6"/>
<text text-anchor="middle" x="1231" y="-917.4" font-family="Times,serif" font-size="14.00" fill="#000000">fetch_from_url_source Method</text>
</g>
<!-- F&#45;&gt;K -->
<g id="edge32" class="edge">
<title>F-&gt;K</title>
<path fill="none" stroke="#000000" d="M954.1395,-999.3808C1011.7985,-983.1821 1096.4776,-959.3925 1156.9868,-942.3931"/>
<polygon fill="#000000" stroke="#000000" points="1158.1783,-945.694 1166.8589,-939.6197 1156.285,-938.9549 1158.1783,-945.694"/>
</g>
<!-- L -->
<g id="node12" class="node">
<title>L</title>
<polygon fill="none" stroke="#000000" points="1584.1552,-939.6 1503.8448,-939.6 1503.8448,-903.6 1584.1552,-903.6 1584.1552,-939.6"/>
<text text-anchor="middle" x="1544" y="-917.4" font-family="Times,serif" font-size="14.00" fill="#000000">get Method</text>
</g>
<!-- F&#45;&gt;L -->
<g id="edge33" class="edge">
<title>F-&gt;L</title>
<path fill="none" stroke="#000000" d="M990.176,-1011.2891C1080.922,-1004.8072 1218.0719,-992.6491 1336,-972.4 1390.6068,-963.0236 1452.1364,-947.3449 1494.0162,-935.8812"/>
<polygon fill="#000000" stroke="#000000" points="1494.987,-939.2442 1503.696,-933.2107 1493.1253,-932.4963 1494.987,-939.2442"/>
</g>
<!-- M -->
<g id="node13" class="node">
<title>M</title>
<polygon fill="none" stroke="#000000" points="1791.4404,-939.6 1710.5596,-939.6 1710.5596,-903.6 1791.4404,-903.6 1791.4404,-939.6"/>
<text text-anchor="middle" x="1751" y="-917.4" font-family="Times,serif" font-size="14.00" fill="#000000">put Method</text>
</g>
<!-- F&#45;&gt;M -->
<g id="edge34" class="edge">
<title>F-&gt;M</title>
<path fill="none" stroke="#000000" d="M990.2002,-1014.037C1156.0316,-1007.9584 1480.4299,-993.758 1593,-972.4 1629.9111,-965.3968 1670.2103,-952.3491 1700.8708,-941.2309"/>
<polygon fill="#000000" stroke="#000000" points="1702.294,-944.4368 1710.4704,-937.699 1699.8769,-937.8673 1702.294,-944.4368"/>
</g>
<!-- N -->
<g id="node14" class="node">
<title>N</title>
<polygon fill="none" stroke="#000000" points="70,-812.8 16,-812.8 16,-776.8 70,-776.8 70,-812.8"/>
<text text-anchor="middle" x="43" y="-790.6" font-family="Times,serif" font-size="14.00" fill="#000000">N</text>
</g>
<!-- G&#45;&gt;N -->
<g id="edge1" class="edge">
<title>G-&gt;N</title>
<path fill="none" stroke="#000000" d="M174.163,-909.6593C131.4435,-899.292 76.8467,-883.3481 61.2068,-866.6 50.3302,-854.9527 45.7174,-837.7572 43.8528,-823.1141"/>
<polygon fill="#000000" stroke="#000000" points="47.3258,-822.6587 42.9305,-813.0187 40.3549,-823.2957 47.3258,-822.6587"/>
<text text-anchor="middle" x="106.8966" y="-854" font-family="Times,serif" font-size="14.00" fill="#000000">Initialize Queue</text>
</g>
<!-- O -->
<g id="node15" class="node">
<title>O</title>
<polygon fill="none" stroke="#000000" points="187,-812.8 133,-812.8 133,-776.8 187,-776.8 187,-812.8"/>
<text text-anchor="middle" x="160" y="-790.6" font-family="Times,serif" font-size="14.00" fill="#000000">O</text>
</g>
<!-- G&#45;&gt;O -->
<g id="edge2" class="edge">
<title>G-&gt;O</title>
<path fill="none" stroke="#000000" d="M194.7386,-903.4047C181.2883,-894.3023 167.3227,-881.9266 159.9354,-866.6 153.466,-853.1779 153.052,-836.6365 154.4492,-822.8149"/>
<polygon fill="#000000" stroke="#000000" points="157.9218,-823.2526 155.8003,-812.8723 150.9855,-822.31 157.9218,-823.2526"/>
<text text-anchor="middle" x="210.5323" y="-854" font-family="Times,serif" font-size="14.00" fill="#000000">Set Worker Name</text>
</g>
<!-- P -->
<g id="node16" class="node">
<title>P</title>
<polygon fill="none" stroke="#000000" points="324,-812.8 270,-812.8 270,-776.8 324,-776.8 324,-812.8"/>
<text text-anchor="middle" x="297" y="-790.6" font-family="Times,serif" font-size="14.00" fill="#000000">P</text>
</g>
<!-- G&#45;&gt;P -->
<g id="edge3" class="edge">
<title>G-&gt;P</title>
<path fill="none" stroke="#000000" d="M241.9235,-903.4699C249.1448,-892.9587 258.0589,-879.3233 265,-866.6 272.7837,-852.332 280.2507,-835.8003 286.0112,-822.1989"/>
<polygon fill="#000000" stroke="#000000" points="289.2754,-823.4645 289.8842,-812.8872 282.8122,-820.7762 289.2754,-823.4645"/>
<text text-anchor="middle" x="322.0014" y="-854" font-family="Times,serif" font-size="14.00" fill="#000000">Set Running Flag</text>
</g>
<!-- Q -->
<g id="node17" class="node">
<title>Q</title>
<polygon fill="none" stroke="#000000" points="458,-812.8 404,-812.8 404,-776.8 458,-776.8 458,-812.8"/>
<text text-anchor="middle" x="431" y="-790.6" font-family="Times,serif" font-size="14.00" fill="#000000">Q</text>
</g>
<!-- H&#45;&gt;Q -->
<g id="edge4" class="edge">
<title>H-&gt;Q</title>
<path fill="none" stroke="#000000" d="M469.8867,-903.2559C460.9763,-893.2133 450.8553,-880.0898 444.7054,-866.6 438.5163,-853.0242 435.1213,-836.774 433.2593,-823.1693"/>
<polygon fill="#000000" stroke="#000000" points="436.7002,-822.4573 432.0706,-812.9275 429.7469,-823.2643 436.7002,-822.4573"/>
<text text-anchor="middle" x="497.6473" y="-854" font-family="Times,serif" font-size="14.00" fill="#000000">Check Queue State</text>
</g>
<!-- X -->
<g id="node24" class="node">
<title>X</title>
<polygon fill="none" stroke="#000000" points="601,-812.8 547,-812.8 547,-776.8 601,-776.8 601,-812.8"/>
<text text-anchor="middle" x="574" y="-790.6" font-family="Times,serif" font-size="14.00" fill="#000000">X</text>
</g>
<!-- I&#45;&gt;X -->
<g id="edge11" class="edge">
<title>I-&gt;X</title>
<path fill="none" stroke="#000000" d="M648.8111,-903.4329C634.4748,-893.8891 618.1013,-881.1504 606.4186,-866.6 596.0141,-853.6415 588.183,-836.8089 582.8264,-822.6991"/>
<polygon fill="#000000" stroke="#000000" points="586.022,-821.2404 579.3619,-813.0006 579.4299,-823.5952 586.022,-821.2404"/>
<text text-anchor="middle" x="640.7907" y="-854" font-family="Times,serif" font-size="14.00" fill="#000000">Start Thread</text>
</g>
<!-- Y -->
<g id="node25" class="node">
<title>Y</title>
<polygon fill="none" stroke="#000000" points="707,-812.8 653,-812.8 653,-776.8 707,-776.8 707,-812.8"/>
<text text-anchor="middle" x="680" y="-790.6" font-family="Times,serif" font-size="14.00" fill="#000000">Y</text>
</g>
<!-- I&#45;&gt;Y -->
<g id="edge12" class="edge">
<title>I-&gt;Y</title>
<path fill="none" stroke="#000000" d="M680,-903.4327C680,-882.4352 680,-847.6261 680,-823.079"/>
<polygon fill="#000000" stroke="#000000" points="683.5001,-822.9336 680,-812.9336 676.5001,-822.9337 683.5001,-822.9336"/>
<text text-anchor="middle" x="733.067" y="-854" font-family="Times,serif" font-size="14.00" fill="#000000">Handle Exceptions</text>
</g>
<!-- Z -->
<g id="node26" class="node">
<title>Z</title>
<polygon fill="none" stroke="#000000" points="849,-812.8 795,-812.8 795,-776.8 849,-776.8 849,-812.8"/>
<text text-anchor="middle" x="822" y="-790.6" font-family="Times,serif" font-size="14.00" fill="#000000">Z</text>
</g>
<!-- J&#45;&gt;Z -->
<g id="edge13" class="edge">
<title>J-&gt;Z</title>
<path fill="none" stroke="#000000" d="M866.6431,-903.5952C855.58,-893.8316 843.1782,-880.8557 835.6886,-866.6 828.7031,-853.3038 825.2509,-836.9544 823.558,-823.2173"/>
<polygon fill="#000000" stroke="#000000" points="827.0026,-822.4795 822.5437,-812.8687 820.0359,-823.1624 827.0026,-822.4795"/>
<text text-anchor="middle" x="885.1557" y="-854" font-family="Times,serif" font-size="14.00" fill="#000000">Log Queue Status</text>
</g>
<!-- AA -->
<g id="node27" class="node">
<title>AA</title>
<polygon fill="none" stroke="#000000" points="985,-812.8 931,-812.8 931,-776.8 985,-776.8 985,-812.8"/>
<text text-anchor="middle" x="958" y="-790.6" font-family="Times,serif" font-size="14.00" fill="#000000">AA</text>
</g>
<!-- J&#45;&gt;AA -->
<g id="edge14" class="edge">
<title>J-&gt;AA</title>
<path fill="none" stroke="#000000" d="M908.6652,-903.1409C917.9737,-893.0668 928.7602,-879.9498 936,-866.6 943.3796,-852.9925 948.6463,-836.5621 952.1727,-822.8546"/>
<polygon fill="#000000" stroke="#000000" points="955.6085,-823.5354 954.5362,-812.995 948.8014,-821.9036 955.6085,-823.5354"/>
<text text-anchor="middle" x="1000.9306" y="-854" font-family="Times,serif" font-size="14.00" fill="#000000">Return Queue Status</text>
</g>
<!-- BB -->
<g id="node28" class="node">
<title>BB</title>
<polygon fill="none" stroke="#000000" points="1137,-812.8 1083,-812.8 1083,-776.8 1137,-776.8 1137,-812.8"/>
<text text-anchor="middle" x="1110" y="-790.6" font-family="Times,serif" font-size="14.00" fill="#000000">BB</text>
</g>
<!-- K&#45;&gt;BB -->
<g id="edge15" class="edge">
<title>K-&gt;BB</title>
<path fill="none" stroke="#000000" d="M1191.0378,-903.4716C1174.2763,-894.3137 1155.6159,-881.8767 1142.2426,-866.6 1131.2339,-854.0244 1123.3845,-837.0754 1118.1886,-822.8027"/>
<polygon fill="#000000" stroke="#000000" points="1121.3869,-821.3348 1114.8668,-812.9838 1114.7561,-823.5781 1121.3869,-821.3348"/>
<text text-anchor="middle" x="1184.3787" y="-854" font-family="Times,serif" font-size="14.00" fill="#000000">Fetch from DB</text>
</g>
<!-- CC -->
<g id="node29" class="node">
<title>CC</title>
<polygon fill="none" stroke="#000000" points="1258,-812.8 1204,-812.8 1204,-776.8 1258,-776.8 1258,-812.8"/>
<text text-anchor="middle" x="1231" y="-790.6" font-family="Times,serif" font-size="14.00" fill="#000000">CC</text>
</g>
<!-- K&#45;&gt;CC -->
<g id="edge16" class="edge">
<title>K-&gt;CC</title>
<path fill="none" stroke="#000000" d="M1231,-903.4327C1231,-882.4352 1231,-847.6261 1231,-823.079"/>
<polygon fill="#000000" stroke="#000000" points="1234.5001,-822.9336 1231,-812.9336 1227.5001,-822.9337 1234.5001,-822.9336"/>
<text text-anchor="middle" x="1287.3843" y="-854" font-family="Times,serif" font-size="14.00" fill="#000000">Log Fetching Status</text>
</g>
<!-- DD -->
<g id="node30" class="node">
<title>DD</title>
<polygon fill="none" stroke="#000000" points="1407,-812.8 1353,-812.8 1353,-776.8 1407,-776.8 1407,-812.8"/>
<text text-anchor="middle" x="1380" y="-790.6" font-family="Times,serif" font-size="14.00" fill="#000000">DD</text>
</g>
<!-- K&#45;&gt;DD -->
<g id="edge17" class="edge">
<title>K-&gt;DD</title>
<path fill="none" stroke="#000000" d="M1289.6826,-903.5873C1310.1468,-895.0035 1331.9757,-882.9508 1348,-866.6 1359.8746,-854.4834 1367.7624,-837.2036 1372.7353,-822.6323"/>
<polygon fill="#000000" stroke="#000000" points="1376.0801,-823.6628 1375.7255,-813.0739 1369.3994,-821.5728 1376.0801,-823.6628"/>
<text text-anchor="middle" x="1416.9604" y="-854" font-family="Times,serif" font-size="14.00" fill="#000000">Add Rows to Queue</text>
</g>
<!-- EE -->
<g id="node31" class="node">
<title>EE</title>
<polygon fill="none" stroke="#000000" points="1557,-812.8 1503,-812.8 1503,-776.8 1557,-776.8 1557,-812.8"/>
<text text-anchor="middle" x="1530" y="-790.6" font-family="Times,serif" font-size="14.00" fill="#000000">EE</text>
</g>
<!-- K&#45;&gt;EE -->
<g id="edge18" class="edge">
<title>K-&gt;EE</title>
<path fill="none" stroke="#000000" d="M1326.804,-907.4369C1385.1376,-897.4537 1453.0828,-882.98 1478,-866.6 1494.6148,-855.6778 1507.703,-837.4945 1516.5928,-822.1601"/>
<polygon fill="#000000" stroke="#000000" points="1519.838,-823.5215 1521.5793,-813.0707 1513.7009,-820.1545 1519.838,-823.5215"/>
<text text-anchor="middle" x="1565.0116" y="-854" font-family="Times,serif" font-size="14.00" fill="#000000">Return Number of Rows</text>
</g>
<!-- FF -->
<g id="node32" class="node">
<title>FF</title>
<polygon fill="none" stroke="#000000" points="1731,-812.8 1677,-812.8 1677,-776.8 1731,-776.8 1731,-812.8"/>
<text text-anchor="middle" x="1704" y="-790.6" font-family="Times,serif" font-size="14.00" fill="#000000">FF</text>
</g>
<!-- L&#45;&gt;FF -->
<g id="edge19" class="edge">
<title>L-&gt;FF</title>
<path fill="none" stroke="#000000" d="M1584.1792,-912.6051C1611.8746,-904.6019 1647.8961,-890.3825 1672,-866.6 1684.1554,-854.6067 1692.0731,-837.1846 1696.9917,-822.5057"/>
<polygon fill="#000000" stroke="#000000" points="1700.3572,-823.4685 1699.933,-812.8821 1693.6629,-821.4224 1700.3572,-823.4685"/>
<text text-anchor="middle" x="1744.0579" y="-854" font-family="Times,serif" font-size="14.00" fill="#000000">Get Item from Queue</text>
</g>
<!-- GG -->
<g id="node33" class="node">
<title>GG</title>
<polygon fill="none" stroke="#000000" points="1887,-812.8 1833,-812.8 1833,-776.8 1887,-776.8 1887,-812.8"/>
<text text-anchor="middle" x="1860" y="-790.6" font-family="Times,serif" font-size="14.00" fill="#000000">GG</text>
</g>
<!-- M&#45;&gt;GG -->
<g id="edge20" class="edge">
<title>M-&gt;GG</title>
<path fill="none" stroke="#000000" d="M1784.0821,-903.4861C1799.0049,-894.0353 1815.9449,-881.3589 1828,-866.6 1838.49,-853.7572 1846.2311,-836.9305 1851.4696,-822.795"/>
<polygon fill="#000000" stroke="#000000" points="1854.8714,-823.668 1854.8452,-813.0732 1848.2587,-821.3719 1854.8714,-823.668"/>
<text text-anchor="middle" x="1895.1529" y="-854" font-family="Times,serif" font-size="14.00" fill="#000000">Check Item Validity</text>
</g>
<!-- R -->
<g id="node18" class="node">
<title>R</title>
<polygon fill="none" stroke="#000000" points="458,-686 404,-686 404,-650 458,-650 458,-686"/>
<text text-anchor="middle" x="431" y="-663.8" font-family="Times,serif" font-size="14.00" fill="#000000">R</text>
</g>
<!-- Q&#45;&gt;R -->
<g id="edge5" class="edge">
<title>Q-&gt;R</title>
<path fill="none" stroke="#000000" d="M431,-776.6327C431,-755.6352 431,-720.8261 431,-696.279"/>
<polygon fill="#000000" stroke="#000000" points="434.5001,-696.1336 431,-686.1336 427.5001,-696.1337 434.5001,-696.1336"/>
<text text-anchor="middle" x="551.7192" y="-727.2" font-family="Times,serif" font-size="14.00" fill="#000000">Fetch from URL Source if Queue is Empty</text>
</g>
<!-- S -->
<g id="node19" class="node">
<title>S</title>
<polygon fill="none" stroke="#000000" points="458,-559.2 404,-559.2 404,-523.2 458,-523.2 458,-559.2"/>
<text text-anchor="middle" x="431" y="-537" font-family="Times,serif" font-size="14.00" fill="#000000">S</text>
</g>
<!-- R&#45;&gt;S -->
<g id="edge6" class="edge">
<title>R-&gt;S</title>
<path fill="none" stroke="#000000" d="M431,-649.8327C431,-628.8352 431,-594.0261 431,-569.479"/>
<polygon fill="#000000" stroke="#000000" points="434.5001,-569.3336 431,-559.3336 427.5001,-569.3337 434.5001,-569.3336"/>
<text text-anchor="middle" x="487.567" y="-600.4" font-family="Times,serif" font-size="14.00" fill="#000000">Add Items to Queue</text>
</g>
<!-- T -->
<g id="node20" class="node">
<title>T</title>
<polygon fill="none" stroke="#000000" points="458,-432.4 404,-432.4 404,-396.4 458,-396.4 458,-432.4"/>
<text text-anchor="middle" x="431" y="-410.2" font-family="Times,serif" font-size="14.00" fill="#000000">T</text>
</g>
<!-- S&#45;&gt;T -->
<g id="edge7" class="edge">
<title>S-&gt;T</title>
<path fill="none" stroke="#000000" d="M431,-523.0327C431,-502.0352 431,-467.2261 431,-442.679"/>
<polygon fill="#000000" stroke="#000000" points="434.5001,-442.5336 431,-432.5336 427.5001,-442.5337 434.5001,-442.5336"/>
<text text-anchor="middle" x="490.2823" y="-473.6" font-family="Times,serif" font-size="14.00" fill="#000000">Generate Embedding</text>
</g>
<!-- U -->
<g id="node21" class="node">
<title>U</title>
<polygon fill="none" stroke="#000000" points="458,-305.6 404,-305.6 404,-269.6 458,-269.6 458,-305.6"/>
<text text-anchor="middle" x="431" y="-283.4" font-family="Times,serif" font-size="14.00" fill="#000000">U</text>
</g>
<!-- T&#45;&gt;U -->
<g id="edge8" class="edge">
<title>T-&gt;U</title>
<path fill="none" stroke="#000000" d="M431,-396.2327C431,-375.2352 431,-340.4261 431,-315.879"/>
<polygon fill="#000000" stroke="#000000" points="434.5001,-315.7336 431,-305.7336 427.5001,-315.7337 434.5001,-315.7336"/>
<text text-anchor="middle" x="512.8503" y="-346.8" font-family="Times,serif" font-size="14.00" fill="#000000">Send Embedding to DuckDB</text>
</g>
<!-- V -->
<g id="node22" class="node">
<title>V</title>
<polygon fill="none" stroke="#000000" points="458,-178.8 404,-178.8 404,-142.8 458,-142.8 458,-178.8"/>
<text text-anchor="middle" x="431" y="-156.6" font-family="Times,serif" font-size="14.00" fill="#000000">V</text>
</g>
<!-- U&#45;&gt;V -->
<g id="edge9" class="edge">
<title>U-&gt;V</title>
<path fill="none" stroke="#000000" d="M431,-269.4327C431,-248.4352 431,-213.6261 431,-189.079"/>
<polygon fill="#000000" stroke="#000000" points="434.5001,-188.9336 431,-178.9336 427.5001,-188.9337 434.5001,-188.9336"/>
<text text-anchor="middle" x="503.8945" y="-220" font-family="Times,serif" font-size="14.00" fill="#000000">Set News Item Embedded</text>
</g>
<!-- W -->
<g id="node23" class="node">
<title>W</title>
<polygon fill="none" stroke="#000000" points="458,-52 404,-52 404,-16 458,-16 458,-52"/>
<text text-anchor="middle" x="431" y="-29.8" font-family="Times,serif" font-size="14.00" fill="#000000">W</text>
</g>
<!-- V&#45;&gt;W -->
<g id="edge10" class="edge">
<title>V-&gt;W</title>
<path fill="none" stroke="#000000" d="M431,-142.6327C431,-121.6352 431,-86.8261 431,-62.279"/>
<polygon fill="#000000" stroke="#000000" points="434.5001,-62.1336 431,-52.1336 427.5001,-62.1337 434.5001,-62.1336"/>
<text text-anchor="middle" x="461.1378" y="-93.2" font-family="Times,serif" font-size="14.00" fill="#000000">Log Status</text>
</g>
<!-- HH -->
<g id="node34" class="node">
<title>HH</title>
<polygon fill="none" stroke="#000000" points="1887,-686 1833,-686 1833,-650 1887,-650 1887,-686"/>
<text text-anchor="middle" x="1860" y="-663.8" font-family="Times,serif" font-size="14.00" fill="#000000">HH</text>
</g>
<!-- GG&#45;&gt;HH -->
<g id="edge21" class="edge">
<title>GG-&gt;HH</title>
<path fill="none" stroke="#000000" d="M1860,-776.6327C1860,-755.6352 1860,-720.8261 1860,-696.279"/>
<polygon fill="#000000" stroke="#000000" points="1863.5001,-696.1336 1860,-686.1336 1856.5001,-696.1337 1863.5001,-696.1336"/>
<text text-anchor="middle" x="1885.8545" y="-727.2" font-family="Times,serif" font-size="14.00" fill="#000000">Log Item</text>
</g>
<!-- II -->
<g id="node35" class="node">
<title>II</title>
<polygon fill="none" stroke="#000000" points="1887,-559.2 1833,-559.2 1833,-523.2 1887,-523.2 1887,-559.2"/>
<text text-anchor="middle" x="1860" y="-537" font-family="Times,serif" font-size="14.00" fill="#000000">II</text>
</g>
<!-- HH&#45;&gt;II -->
<g id="edge22" class="edge">
<title>HH-&gt;II</title>
<path fill="none" stroke="#000000" d="M1860,-649.8327C1860,-628.8352 1860,-594.0261 1860,-569.479"/>
<polygon fill="#000000" stroke="#000000" points="1863.5001,-569.3336 1860,-559.3336 1856.5001,-569.3337 1863.5001,-569.3336"/>
<text text-anchor="middle" x="1911.128" y="-600.4" font-family="Times,serif" font-size="14.00" fill="#000000">Put Item in Queue</text>
</g>
</g>
</svg>