<?xml version="1.0" encoding="UTF-8" standalone="no"?><!DOCTYPE svg PUBLIC "-//W3C//DTD SVG 1.1//EN" "http://www.w3.org/Graphics/SVG/1.1/DTD/svg11.dtd"><!-- Generated by graphviz version 2.40.1 (20161225.0304)
 --><!-- Title: G Pages: 1 --><svg xmlns="http://www.w3.org/2000/svg" xmlns:xlink="http://www.w3.org/1999/xlink" width="562pt" height="995pt" viewBox="0.00 0.00 562.00 995.20">
<g id="graph0" class="graph" transform="scale(1 1) rotate(0) translate(4 991.2)">
<title>G</title>
<polygon fill="#ffffff" stroke="transparent" points="-4,4 -4,-991.2 558,-991.2 558,4 -4,4"/>
<g id="clust1" class="cluster">
<title>cluster_0</title>
<polygon fill="none" stroke="#000000" points="343,-622 343,-698.8 525,-698.8 525,-622 343,-622"/>
<text text-anchor="middle" x="434" y="-682.2" font-family="Times,serif" font-size="14.00" fill="#000000">Initialization</text>
</g>
<g id="clust2" class="cluster">
<title>cluster_1</title>
<polygon fill="none" stroke="#000000" points="349,-214.8 349,-587.2 519,-587.2 519,-214.8 349,-214.8"/>
<text text-anchor="middle" x="434" y="-570.6" font-family="Times,serif" font-size="14.00" fill="#000000">Main Loop</text>
</g>
<g id="clust3" class="cluster">
<title>cluster_2</title>
<polygon fill="none" stroke="#000000" points="370,-8 370,-195.8 546,-195.8 546,-8 370,-8"/>
<text text-anchor="middle" x="458" y="-179.2" font-family="Times,serif" font-size="14.00" fill="#000000">Fetch and Process HTML</text>
</g>
<g id="clust4" class="cluster">
<title>cluster_3</title>
<polygon fill="none" stroke="#000000" points="191,-383.6 191,-979.2 335,-979.2 335,-383.6 191,-383.6"/>
<text text-anchor="middle" x="263" y="-962.6" font-family="Times,serif" font-size="14.00" fill="#000000">Key Info Generation</text>
</g>
<g id="clust5" class="cluster">
<title>cluster_4</title>
<polygon fill="none" stroke="#000000" points="190,-287.8 190,-364.6 340,-364.6 340,-287.8 190,-287.8"/>
<text text-anchor="middle" x="265" y="-348" font-family="Times,serif" font-size="14.00" fill="#000000">Save to Database</text>
</g>
<g id="clust6" class="cluster">
<title>cluster_5</title>
<polygon fill="none" stroke="#000000" points="8,-622 8,-867.6 183,-867.6 183,-622 8,-622"/>
<text text-anchor="middle" x="95.5" y="-851" font-family="Times,serif" font-size="14.00" fill="#000000">Error Handling and Logging</text>
</g>
<!-- WorkerInit -->
<g id="node1" class="node">
<title>WorkerInit</title>
<polygon fill="none" stroke="#000000" points="516.6659,-666 351.3341,-666 351.3341,-630 516.6659,-630 516.6659,-666"/>
<text text-anchor="middle" x="434" y="-643.8" font-family="Times,serif" font-size="14.00" fill="#000000">Initialize key_info_worker</text>
</g>
<!-- StartThreads -->
<g id="node2" class="node">
<title>StartThreads</title>
<polygon fill="none" stroke="#000000" points="479.526,-554.4 388.474,-554.4 388.474,-518.4 479.526,-518.4 479.526,-554.4"/>
<text text-anchor="middle" x="434" y="-532.2" font-family="Times,serif" font-size="14.00" fill="#000000">Start Threads</text>
</g>
<!-- WorkerInit&#45;&gt;StartThreads -->
<g id="edge1" class="edge">
<title>WorkerInit-&gt;StartThreads</title>
<path fill="none" stroke="#000000" d="M434,-629.5715C434,-611.939 434,-585.0924 434,-564.7391"/>
<polygon fill="#000000" stroke="#000000" points="437.5001,-564.4855 434,-554.4856 430.5001,-564.4856 437.5001,-564.4855"/>
</g>
<!-- SummaryThread -->
<g id="node3" class="node">
<title>SummaryThread</title>
<polygon fill="none" stroke="#000000" points="490.5822,-427.6 377.4178,-427.6 377.4178,-391.6 490.5822,-391.6 490.5822,-427.6"/>
<text text-anchor="middle" x="434" y="-405.4" font-family="Times,serif" font-size="14.00" fill="#000000">Summary Thread</text>
</g>
<!-- StartThreads&#45;&gt;SummaryThread -->
<g id="edge2" class="edge">
<title>StartThreads-&gt;SummaryThread</title>
<path fill="none" stroke="#000000" d="M434,-518.2327C434,-497.2352 434,-462.4261 434,-437.879"/>
<polygon fill="#000000" stroke="#000000" points="437.5001,-437.7336 434,-427.7336 430.5001,-437.7337 437.5001,-437.7336"/>
</g>
<!-- FetchFromSource -->
<g id="node4" class="node">
<title>FetchFromSource</title>
<polygon fill="none" stroke="#000000" points="511.3045,-258.8 356.6955,-258.8 356.6955,-222.8 511.3045,-222.8 511.3045,-258.8"/>
<text text-anchor="middle" x="434" y="-236.6" font-family="Times,serif" font-size="14.00" fill="#000000">Fetch From URL Source</text>
</g>
<!-- SummaryThread&#45;&gt;FetchFromSource -->
<g id="edge3" class="edge">
<title>SummaryThread-&gt;FetchFromSource</title>
<path fill="none" stroke="#000000" d="M434,-391.5354C434,-362.1691 434,-303.8586 434,-268.9978"/>
<polygon fill="#000000" stroke="#000000" points="437.5001,-268.9898 434,-258.9898 430.5001,-268.9898 437.5001,-268.9898"/>
</g>
<!-- FetchHTML -->
<g id="node5" class="node">
<title>FetchHTML</title>
<polygon fill="none" stroke="#000000" points="504.5381,-163 389.4619,-163 389.4619,-127 504.5381,-127 504.5381,-163"/>
<text text-anchor="middle" x="447" y="-140.8" font-family="Times,serif" font-size="14.00" fill="#000000">Fetch HTML File</text>
</g>
<!-- FetchFromSource&#45;&gt;FetchHTML -->
<g id="edge4" class="edge">
<title>FetchFromSource-&gt;FetchHTML</title>
<path fill="none" stroke="#000000" d="M436.4452,-222.7808C438.3397,-208.8198 440.9994,-189.2202 443.1748,-173.1887"/>
<polygon fill="#000000" stroke="#000000" points="446.645,-173.644 444.5216,-163.2642 439.7086,-172.7027 446.645,-173.644"/>
</g>
<!-- ExtractText -->
<g id="node6" class="node">
<title>ExtractText</title>
<polygon fill="none" stroke="#000000" points="537.9502,-52 378.0498,-52 378.0498,-16 537.9502,-16 537.9502,-52"/>
<text text-anchor="middle" x="458" y="-29.8" font-family="Times,serif" font-size="14.00" fill="#000000">Extract Text from HTML</text>
</g>
<!-- FetchHTML&#45;&gt;ExtractText -->
<g id="edge5" class="edge">
<title>FetchHTML-&gt;ExtractText</title>
<path fill="none" stroke="#000000" d="M448.8164,-126.6706C450.5441,-109.2373 453.1691,-82.7482 455.1708,-62.5489"/>
<polygon fill="#000000" stroke="#000000" points="458.6776,-62.6531 456.1809,-52.3566 451.7117,-61.9627 458.6776,-62.6531"/>
</g>
<!-- KeyInfoRequest -->
<g id="node7" class="node">
<title>KeyInfoRequest</title>
<polygon fill="none" stroke="#000000" points="316.2437,-946.4 201.7563,-946.4 201.7563,-910.4 316.2437,-910.4 316.2437,-946.4"/>
<text text-anchor="middle" x="259" y="-924.2" font-family="Times,serif" font-size="14.00" fill="#000000">Key Info Request</text>
</g>
<!-- ExtractText&#45;&gt;KeyInfoRequest -->
<g id="edge6" class="edge">
<title>ExtractText-&gt;KeyInfoRequest</title>
<path fill="none" stroke="#000000" d="M517.9496,-52.0482C533.0192,-60.449 545,-72.48 545,-89.5 545,-816.8 545,-816.8 545,-816.8 545,-863.4715 411.1521,-898.5154 326.5884,-915.9984"/>
<polygon fill="#000000" stroke="#000000" points="325.6344,-912.6206 316.5323,-918.043 327.0292,-919.4803 325.6344,-912.6206"/>
</g>
<!-- KeyInfoValidation -->
<g id="node8" class="node">
<title>KeyInfoValidation</title>
<polygon fill="none" stroke="#000000" points="327.2409,-761.8 198.7591,-761.8 198.7591,-725.8 327.2409,-725.8 327.2409,-761.8"/>
<text text-anchor="middle" x="263" y="-739.6" font-family="Times,serif" font-size="14.00" fill="#000000">Key Info Validation</text>
</g>
<!-- KeyInfoRequest&#45;&gt;KeyInfoValidation -->
<g id="edge7" class="edge">
<title>KeyInfoRequest-&gt;KeyInfoValidation</title>
<path fill="none" stroke="#000000" d="M259.3908,-910.3637C260.0898,-878.1053 261.5586,-810.3196 262.3909,-771.9101"/>
<polygon fill="#000000" stroke="#000000" points="265.89,-771.9831 262.6076,-761.9095 258.8917,-771.8313 265.89,-771.9831"/>
</g>
<!-- LogError -->
<g id="node12" class="node">
<title>LogError</title>
<polygon fill="none" stroke="#000000" points="131.5882,-834.8 60.4118,-834.8 60.4118,-798.8 131.5882,-798.8 131.5882,-834.8"/>
<text text-anchor="middle" x="96" y="-812.6" font-family="Times,serif" font-size="14.00" fill="#000000">Log Error</text>
</g>
<!-- KeyInfoRequest&#45;&gt;LogError -->
<g id="edge14" class="edge">
<title>KeyInfoRequest-&gt;LogError</title>
<path fill="none" stroke="#000000" d="M201.3595,-924.0534C157.0244,-919.3708 100.9858,-910.0752 86.6206,-892.4 75.9462,-879.266 78.2873,-860.372 83.2989,-844.7586"/>
<polygon fill="#000000" stroke="#000000" points="86.697,-845.6589 86.8679,-835.0655 80.1281,-843.2402 86.697,-845.6589"/>
<text text-anchor="middle" x="122.1897" y="-879.8" font-family="Times,serif" font-size="14.00" fill="#000000">Request Fail</text>
</g>
<!-- CheckValidation -->
<g id="node9" class="node">
<title>CheckValidation</title>
<polygon fill="none" stroke="#000000" points="313.3646,-554.4 198.6354,-554.4 198.6354,-518.4 313.3646,-518.4 313.3646,-554.4"/>
<text text-anchor="middle" x="256" y="-532.2" font-family="Times,serif" font-size="14.00" fill="#000000">Check Validation</text>
</g>
<!-- KeyInfoValidation&#45;&gt;CheckValidation -->
<g id="edge8" class="edge">
<title>KeyInfoValidation-&gt;CheckValidation</title>
<path fill="none" stroke="#000000" d="M262.391,-725.7574C261.1706,-689.5977 258.4173,-608.0214 256.9548,-564.6901"/>
<polygon fill="#000000" stroke="#000000" points="260.448,-564.4248 256.6125,-554.5485 253.4519,-564.661 260.448,-564.4248"/>
</g>
<!-- RemoveFirstLine -->
<g id="node10" class="node">
<title>RemoveFirstLine</title>
<polygon fill="none" stroke="#000000" points="322.4832,-427.6 201.5168,-427.6 201.5168,-391.6 322.4832,-391.6 322.4832,-427.6"/>
<text text-anchor="middle" x="262" y="-405.4" font-family="Times,serif" font-size="14.00" fill="#000000">Remove First Line</text>
</g>
<!-- CheckValidation&#45;&gt;RemoveFirstLine -->
<g id="edge9" class="edge">
<title>CheckValidation-&gt;RemoveFirstLine</title>
<path fill="none" stroke="#000000" d="M246.8043,-518.1945C240.6303,-503.7351 234.2666,-482.9642 238.0862,-464.6 240.0272,-455.2677 243.6382,-445.5765 247.4764,-436.9765"/>
<polygon fill="#000000" stroke="#000000" points="250.7023,-438.3425 251.8296,-427.8078 244.3788,-435.3401 250.7023,-438.3425"/>
<text text-anchor="middle" x="291.4569" y="-468.8" font-family="Times,serif" font-size="14.00" fill="#000000">Validation Success</text>
</g>
<!-- Retry -->
<g id="node13" class="node">
<title>Retry</title>
<polygon fill="none" stroke="#000000" points="175,-666 121,-666 121,-630 175,-630 175,-666"/>
<text text-anchor="middle" x="148" y="-643.8" font-family="Times,serif" font-size="14.00" fill="#000000">Retry</text>
</g>
<!-- CheckValidation&#45;&gt;Retry -->
<g id="edge12" class="edge">
<title>CheckValidation-&gt;Retry</title>
<path fill="none" stroke="#000000" d="M220.9015,-554.4062C203.9229,-564.5277 184.3081,-578.4919 170.6234,-595.2 164.719,-602.4089 160.1109,-611.3893 156.6393,-619.8877"/>
<polygon fill="#000000" stroke="#000000" points="153.2674,-618.9146 153.0765,-629.5077 159.8317,-621.3458 153.2674,-618.9146"/>
<text text-anchor="middle" x="212.1883" y="-599.4" font-family="Times,serif" font-size="14.00" fill="#000000">Validation Fail</text>
</g>
<!-- SaveKeyInfo -->
<g id="node11" class="node">
<title>SaveKeyInfo</title>
<polygon fill="none" stroke="#000000" points="332.1881,-331.8 197.8119,-331.8 197.8119,-295.8 332.1881,-295.8 332.1881,-331.8"/>
<text text-anchor="middle" x="265" y="-309.6" font-family="Times,serif" font-size="14.00" fill="#000000">Save Key Info to DB</text>
</g>
<!-- RemoveFirstLine&#45;&gt;SaveKeyInfo -->
<g id="edge10" class="edge">
<title>RemoveFirstLine-&gt;SaveKeyInfo</title>
<path fill="none" stroke="#000000" d="M262.5643,-391.5808C262.9973,-377.7527 263.6036,-358.393 264.1029,-342.4477"/>
<polygon fill="#000000" stroke="#000000" points="267.6132,-342.1688 264.4281,-332.0642 260.6167,-341.9497 267.6132,-342.1688"/>
</g>
<!-- SaveKeyInfo&#45;&gt;FetchFromSource -->
<g id="edge11" class="edge">
<title>SaveKeyInfo-&gt;FetchFromSource</title>
<path fill="none" stroke="#000000" d="M306.7753,-295.7551C329.7287,-285.8403 358.3898,-273.46 382.6945,-262.9615"/>
<polygon fill="#000000" stroke="#000000" points="384.3273,-266.0689 392.1196,-258.8904 381.5515,-259.6428 384.3273,-266.0689"/>
</g>
<!-- LogError&#45;&gt;Retry -->
<g id="edge15" class="edge">
<title>LogError-&gt;Retry</title>
<path fill="none" stroke="#000000" d="M101.5649,-798.7354C110.6504,-769.2426 128.7294,-710.5554 139.4519,-675.7483"/>
<polygon fill="#000000" stroke="#000000" points="142.7973,-676.7771 142.3965,-666.1898 136.1075,-674.7162 142.7973,-676.7771"/>
</g>
<!-- Retry&#45;&gt;KeyInfoRequest -->
<g id="edge13" class="edge">
<title>Retry-&gt;KeyInfoRequest</title>
<path fill="none" stroke="#000000" d="M154.4746,-666.2154C162.5433,-688.7557 176.8732,-728.2658 190,-761.8 209.2355,-810.9398 233.055,-867.5975 247.0823,-900.5682"/>
<polygon fill="#000000" stroke="#000000" points="243.9641,-902.179 251.1053,-910.0055 250.4034,-899.4339 243.9641,-902.179"/>
</g>
</g>
</svg>