<?xml version="1.0" encoding="UTF-8" standalone="no"?><!DOCTYPE svg PUBLIC "-//W3C//DTD SVG 1.1//EN" "http://www.w3.org/Graphics/SVG/1.1/DTD/svg11.dtd"><!-- Generated by graphviz version 2.40.1 (20161225.0304)
 --><!-- Title: G Pages: 1 --><svg xmlns="http://www.w3.org/2000/svg" xmlns:xlink="http://www.w3.org/1999/xlink" width="832pt" height="1131pt" viewBox="0.00 0.00 832.00 1130.80">
<g id="graph0" class="graph" transform="scale(1 1) rotate(0) translate(4 1126.8)">
<title>G</title>
<polygon fill="#ffffff" stroke="transparent" points="-4,4 -4,-1126.8 828,-1126.8 828,4 -4,4"/>
<g id="clust1" class="cluster">
<title>cluster_0</title>
<polygon fill="none" stroke="#000000" points="418,-720.2 418,-797 586,-797 586,-720.2 418,-720.2"/>
<text text-anchor="middle" x="502" y="-780.4" font-family="Times,serif" font-size="14.00" fill="#000000">Initialization</text>
</g>
<g id="clust2" class="cluster">
<title>cluster_1</title>
<polygon fill="none" stroke="#000000" points="392,-246.4 392,-685.4 558,-685.4 558,-246.4 392,-246.4"/>
<text text-anchor="middle" x="475" y="-668.8" font-family="Times,serif" font-size="14.00" fill="#000000">Main Loop</text>
</g>
<g id="clust3" class="cluster">
<title>cluster_2</title>
<polygon fill="none" stroke="#000000" points="594,-608.6 594,-1114.8 804,-1114.8 804,-608.6 594,-608.6"/>
<text text-anchor="middle" x="699" y="-1098.2" font-family="Times,serif" font-size="14.00" fill="#000000">Process Each Source</text>
</g>
<g id="clust4" class="cluster">
<title>cluster_3</title>
<polygon fill="none" stroke="#000000" points="20,-8 20,-797 352,-797 352,-8 20,-8"/>
<text text-anchor="middle" x="186" y="-780.4" font-family="Times,serif" font-size="14.00" fill="#000000">AI Code Generation</text>
</g>
<g id="clust5" class="cluster">
<title>cluster_4</title>
<polygon fill="none" stroke="#000000" points="566,-335.2 566,-573.8 774,-573.8 774,-335.2 566,-335.2"/>
<text text-anchor="middle" x="670" y="-557.2" font-family="Times,serif" font-size="14.00" fill="#000000">Save to Database</text>
</g>
<g id="clust6" class="cluster">
<title>cluster_5</title>
<polygon fill="none" stroke="#000000" points="430,-8 430,-211.6 554,-211.6 554,-8 430,-8"/>
<text text-anchor="middle" x="492" y="-195" font-family="Times,serif" font-size="14.00" fill="#000000">Miscellaneous</text>
</g>
<!-- WorkerInit -->
<g id="node1" class="node">
<title>WorkerInit</title>
<polygon fill="none" stroke="#000000" points="578.4348,-764.2 425.5652,-764.2 425.5652,-728.2 578.4348,-728.2 578.4348,-764.2"/>
<text text-anchor="middle" x="502" y="-742" font-family="Times,serif" font-size="14.00" fill="#000000">Initialize source_worker</text>
</g>
<!-- ReadSourceList -->
<g id="node2" class="node">
<title>ReadSourceList</title>
<polygon fill="none" stroke="#000000" points="548.4174,-652.6 435.5826,-652.6 435.5826,-616.6 548.4174,-616.6 548.4174,-652.6"/>
<text text-anchor="middle" x="492" y="-630.4" font-family="Times,serif" font-size="14.00" fill="#000000">Read Source List</text>
</g>
<!-- WorkerInit&#45;&gt;ReadSourceList -->
<g id="edge1" class="edge">
<title>WorkerInit-&gt;ReadSourceList</title>
<path fill="none" stroke="#000000" d="M544.2026,-728.008C558.0893,-719.1414 568.5055,-707.3607 562,-693.4 555.5728,-679.6073 544.1416,-667.8984 532.356,-658.6471"/>
<polygon fill="#000000" stroke="#000000" points="534.325,-655.7505 524.1972,-652.6396 530.1745,-661.3873 534.325,-655.7505"/>
</g>
<!-- LogSourceList -->
<g id="node3" class="node">
<title>LogSourceList</title>
<polygon fill="none" stroke="#000000" points="545.2036,-452.2 438.7964,-452.2 438.7964,-416.2 545.2036,-416.2 545.2036,-452.2"/>
<text text-anchor="middle" x="492" y="-430" font-family="Times,serif" font-size="14.00" fill="#000000">Log Source List</text>
</g>
<!-- ReadSourceList&#45;&gt;LogSourceList -->
<g id="edge2" class="edge">
<title>ReadSourceList-&gt;LogSourceList</title>
<path fill="none" stroke="#000000" d="M492,-616.4624C492,-581.4524 492,-504.3338 492,-462.5098"/>
<polygon fill="#000000" stroke="#000000" points="495.5001,-462.441 492,-452.441 488.5001,-462.441 495.5001,-462.441"/>
</g>
<!-- IterateSources -->
<g id="node4" class="node">
<title>IterateSources</title>
<polygon fill="none" stroke="#000000" points="550.3788,-290.4 399.6212,-290.4 399.6212,-254.4 550.3788,-254.4 550.3788,-290.4"/>
<text text-anchor="middle" x="475" y="-268.2" font-family="Times,serif" font-size="14.00" fill="#000000">Iterate Over Source List</text>
</g>
<!-- LogSourceList&#45;&gt;IterateSources -->
<g id="edge3" class="edge">
<title>LogSourceList-&gt;IterateSources</title>
<path fill="none" stroke="#000000" d="M492.8662,-416.1095C493.6852,-391.5118 493.915,-346.2426 487,-308.4 486.5063,-305.6983 485.8552,-302.9219 485.111,-300.1668"/>
<polygon fill="#000000" stroke="#000000" points="488.4085,-298.9818 482.1231,-290.4527 481.7178,-301.0398 488.4085,-298.9818"/>
</g>
<!-- ParseFeed -->
<g id="node5" class="node">
<title>ParseFeed</title>
<polygon fill="none" stroke="#000000" points="766.5288,-1082 689.4712,-1082 689.4712,-1046 766.5288,-1046 766.5288,-1082"/>
<text text-anchor="middle" x="728" y="-1059.8" font-family="Times,serif" font-size="14.00" fill="#000000">Parse Feed</text>
</g>
<!-- IterateSources&#45;&gt;ParseFeed -->
<g id="edge4" class="edge">
<title>IterateSources-&gt;ParseFeed</title>
<path fill="none" stroke="#000000" d="M550.7278,-276.4813C653.3715,-284.1239 824,-305.2438 824,-361.2 824,-1008.5 824,-1008.5 824,-1008.5 824,-1032.9497 800.3728,-1046.7999 776.5614,-1054.5498"/>
<polygon fill="#000000" stroke="#000000" points="775.3832,-1051.2478 766.7702,-1057.4175 777.3508,-1057.9656 775.3832,-1051.2478"/>
</g>
<!-- GarbageCollect -->
<g id="node18" class="node">
<title>GarbageCollect</title>
<polygon fill="none" stroke="#000000" points="545.8492,-178.8 438.1508,-178.8 438.1508,-142.8 545.8492,-142.8 545.8492,-178.8"/>
<text text-anchor="middle" x="492" y="-156.6" font-family="Times,serif" font-size="14.00" fill="#000000">Garbage Collect</text>
</g>
<!-- IterateSources&#45;&gt;GarbageCollect -->
<g id="edge22" class="edge">
<title>IterateSources-&gt;GarbageCollect</title>
<path fill="none" stroke="#000000" d="M477.8072,-253.9715C480.5055,-236.2577 484.6204,-209.2448 487.7259,-188.8581"/>
<polygon fill="#000000" stroke="#000000" points="491.1991,-189.2986 489.245,-178.8856 484.2789,-188.2444 491.1991,-189.2986"/>
<text text-anchor="middle" x="524.7651" y="-223.8" font-family="Times,serif" font-size="14.00" fill="#000000">End of Sources</text>
</g>
<!-- UpdateSource -->
<g id="node6" class="node">
<title>UpdateSource</title>
<polygon fill="none" stroke="#000000" points="782.0772,-971 657.9228,-971 657.9228,-935 782.0772,-935 782.0772,-971"/>
<text text-anchor="middle" x="720" y="-948.8" font-family="Times,serif" font-size="14.00" fill="#000000">Update Source List</text>
</g>
<!-- ParseFeed&#45;&gt;UpdateSource -->
<g id="edge5" class="edge">
<title>ParseFeed-&gt;UpdateSource</title>
<path fill="none" stroke="#000000" d="M726.679,-1045.6706C725.4225,-1028.2373 723.5134,-1001.7482 722.0576,-981.5489"/>
<polygon fill="#000000" stroke="#000000" points="725.5329,-981.0791 721.323,-971.3566 718.551,-981.5824 725.5329,-981.0791"/>
</g>
<!-- RunRSSCode -->
<g id="node7" class="node">
<title>RunRSSCode</title>
<polygon fill="none" stroke="#000000" points="795.8187,-860 602.1813,-860 602.1813,-824 795.8187,-824 795.8187,-860"/>
<text text-anchor="middle" x="699" y="-837.8" font-family="Times,serif" font-size="14.00" fill="#000000">Run RSS Source Reading Code</text>
</g>
<!-- UpdateSource&#45;&gt;RunRSSCode -->
<g id="edge6" class="edge">
<title>UpdateSource-&gt;RunRSSCode</title>
<path fill="none" stroke="#000000" d="M716.5323,-934.6706C713.2189,-917.1569 708.1764,-890.5039 704.3484,-870.2701"/>
<polygon fill="#000000" stroke="#000000" points="707.7709,-869.5317 702.4729,-860.3566 700.8929,-870.833 707.7709,-869.5317"/>
</g>
<!-- CheckRetStatus -->
<g id="node8" class="node">
<title>CheckRetStatus</title>
<polygon fill="none" stroke="#000000" points="730.0598,-652.6 609.9402,-652.6 609.9402,-616.6 730.0598,-616.6 730.0598,-652.6"/>
<text text-anchor="middle" x="670" y="-630.4" font-family="Times,serif" font-size="14.00" fill="#000000">Check ret['status']</text>
</g>
<!-- RunRSSCode&#45;&gt;CheckRetStatus -->
<g id="edge7" class="edge">
<title>RunRSSCode-&gt;CheckRetStatus</title>
<path fill="none" stroke="#000000" d="M696.4772,-823.9574C691.4211,-787.7977 680.0146,-706.2214 673.9557,-662.8901"/>
<polygon fill="#000000" stroke="#000000" points="677.3888,-662.1675 672.5376,-652.7485 670.4562,-663.1369 677.3888,-662.1675"/>
</g>
<!-- CleanAI -->
<g id="node14" class="node">
<title>CleanAI</title>
<polygon fill="none" stroke="#000000" points="163.7409,-764.2 56.2591,-764.2 56.2591,-728.2 163.7409,-728.2 163.7409,-764.2"/>
<text text-anchor="middle" x="110" y="-742" font-family="Times,serif" font-size="14.00" fill="#000000">Clean AI Object</text>
</g>
<!-- RunRSSCode&#45;&gt;CleanAI -->
<g id="edge20" class="edge">
<title>RunRSSCode-&gt;CleanAI</title>
<path fill="none" stroke="#000000" d="M602.2471,-840.454C472.1634,-837.2285 248.4798,-827.3203 173,-797 158.6269,-791.2263 144.9498,-781.0047 134.0348,-771.2367"/>
<polygon fill="#000000" stroke="#000000" points="136.2948,-768.558 126.6046,-764.2744 131.5085,-773.666 136.2948,-768.558"/>
</g>
<!-- InitAI -->
<g id="node9" class="node">
<title>InitAI</title>
<polygon fill="none" stroke="#000000" points="344.1769,-764.2 181.8231,-764.2 181.8231,-728.2 344.1769,-728.2 344.1769,-764.2"/>
<text text-anchor="middle" x="263" y="-742" font-family="Times,serif" font-size="14.00" fill="#000000">Initialize AI Conversation</text>
</g>
<!-- CheckRetStatus&#45;&gt;InitAI -->
<g id="edge11" class="edge">
<title>CheckRetStatus-&gt;InitAI</title>
<path fill="none" stroke="#000000" d="M646.7887,-652.7165C631.4732,-663.789 610.5159,-677.3292 590,-685.4 578.9503,-689.7469 447.0716,-713.6136 354.2164,-730.1183"/>
<polygon fill="#000000" stroke="#000000" points="353.4634,-726.6972 344.2294,-731.8919 354.6873,-733.5894 353.4634,-726.6972"/>
<text text-anchor="middle" x="604.6381" y="-697.6" font-family="Times,serif" font-size="14.00" fill="#000000">ret['status'] != True</text>
</g>
<!-- CreateTable -->
<g id="node16" class="node">
<title>CreateTable</title>
<polygon fill="none" stroke="#000000" points="766.1032,-541 573.8968,-541 573.8968,-505 766.1032,-505 766.1032,-541"/>
<text text-anchor="middle" x="670" y="-518.8" font-family="Times,serif" font-size="14.00" fill="#000000">Create News Table if Not Exist</text>
</g>
<!-- CheckRetStatus&#45;&gt;CreateTable -->
<g id="edge8" class="edge">
<title>CheckRetStatus-&gt;CreateTable</title>
<path fill="none" stroke="#000000" d="M670,-616.1715C670,-598.539 670,-571.6924 670,-551.3391"/>
<polygon fill="#000000" stroke="#000000" points="673.5001,-551.0855 670,-541.0856 666.5001,-551.0856 673.5001,-551.0855"/>
<text text-anchor="middle" x="727.2551" y="-586" font-family="Times,serif" font-size="14.00" fill="#000000">ret['status'] == True</text>
</g>
<!-- AIDebugLoop -->
<g id="node10" class="node">
<title>AIDebugLoop</title>
<polygon fill="none" stroke="#000000" points="269.1416,-541 164.8584,-541 164.8584,-505 269.1416,-505 269.1416,-541"/>
<text text-anchor="middle" x="217" y="-518.8" font-family="Times,serif" font-size="14.00" fill="#000000">AI Debug Loop</text>
</g>
<!-- InitAI&#45;&gt;AIDebugLoop -->
<g id="edge12" class="edge">
<title>InitAI-&gt;AIDebugLoop</title>
<path fill="none" stroke="#000000" d="M259.2356,-727.9346C251.2132,-689.0085 232.3857,-597.6543 222.8113,-551.1977"/>
<polygon fill="#000000" stroke="#000000" points="226.1984,-550.2924 220.7519,-541.2047 219.3425,-551.7054 226.1984,-550.2924"/>
</g>
<!-- AIDebug -->
<g id="node11" class="node">
<title>AIDebug</title>
<polygon fill="none" stroke="#000000" points="212.2836,-379.2 71.7164,-379.2 71.7164,-343.2 212.2836,-343.2 212.2836,-379.2"/>
<text text-anchor="middle" x="142" y="-357" font-family="Times,serif" font-size="14.00" fill="#000000">AI Debug and Recode</text>
</g>
<!-- AIDebugLoop&#45;&gt;AIDebug -->
<g id="edge13" class="edge">
<title>AIDebugLoop-&gt;AIDebug</title>
<path fill="none" stroke="#000000" d="M208.5423,-504.754C195.4321,-476.4709 170.1196,-421.8632 154.7736,-388.757"/>
<polygon fill="#000000" stroke="#000000" points="157.9228,-387.2283 150.5418,-379.6276 151.572,-390.1722 157.9228,-387.2283"/>
</g>
<!-- CheckGenerateCodeCounter -->
<g id="node12" class="node">
<title>CheckGenerateCodeCounter</title>
<polygon fill="none" stroke="#000000" points="235.9361,-178.8 48.0639,-178.8 48.0639,-142.8 235.9361,-142.8 235.9361,-178.8"/>
<text text-anchor="middle" x="142" y="-156.6" font-family="Times,serif" font-size="14.00" fill="#000000">Check Generate Code Counter</text>
</g>
<!-- AIDebug&#45;&gt;CheckGenerateCodeCounter -->
<g id="edge14" class="edge">
<title>AIDebug-&gt;CheckGenerateCodeCounter</title>
<path fill="none" stroke="#000000" d="M142,-343.0624C142,-308.0524 142,-230.9338 142,-189.1098"/>
<polygon fill="#000000" stroke="#000000" points="145.5001,-189.041 142,-179.041 138.5001,-189.041 145.5001,-189.041"/>
</g>
<!-- CheckGenerateCodeCounter&#45;&gt;RunRSSCode -->
<g id="edge19" class="edge">
<title>CheckGenerateCodeCounter-&gt;RunRSSCode</title>
<path fill="none" stroke="#000000" d="M87.5052,-178.8506C47.4604,-195.9453 0,-225.9943 0,-272.4 0,-746.2 0,-746.2 0,-746.2 0,-776.9588 19.2576,-783.716 47,-797 94.7546,-819.8665 419.4919,-833.311 591.9126,-838.9168"/>
<polygon fill="#000000" stroke="#000000" points="591.9245,-842.4189 602.0319,-839.2425 592.1497,-835.4225 591.9245,-842.4189"/>
<text text-anchor="middle" x="22.1578" y="-474.4" font-family="Times,serif" font-size="14.00" fill="#000000">Success</text>
</g>
<!-- AppendFeedback -->
<g id="node13" class="node">
<title>AppendFeedback</title>
<polygon fill="none" stroke="#000000" points="163.7297,-52 28.2703,-52 28.2703,-16 163.7297,-16 163.7297,-52"/>
<text text-anchor="middle" x="96" y="-29.8" font-family="Times,serif" font-size="14.00" fill="#000000">Append AI Feedback</text>
</g>
<!-- CheckGenerateCodeCounter&#45;&gt;AppendFeedback -->
<g id="edge15" class="edge">
<title>CheckGenerateCodeCounter-&gt;AppendFeedback</title>
<path fill="none" stroke="#000000" d="M112.2567,-142.5912C99.9181,-133.2745 86.9382,-120.7344 80.24,-105.8 73.9781,-91.8385 77.0388,-75.2051 82.0631,-61.4652"/>
<polygon fill="#000000" stroke="#000000" points="85.3692,-62.6295 85.9634,-52.0514 78.9023,-59.9501 85.3692,-62.6295"/>
<text text-anchor="middle" x="139.38" y="-93.2" font-family="Times,serif" font-size="14.00" fill="#000000">Counter &lt; Threshold</text>
</g>
<!-- DisableSource -->
<g id="node15" class="node">
<title>DisableSource</title>
<polygon fill="none" stroke="#000000" points="312.6341,-52 211.3659,-52 211.3659,-16 312.6341,-16 312.6341,-52"/>
<text text-anchor="middle" x="262" y="-29.8" font-family="Times,serif" font-size="14.00" fill="#000000">Disable Source</text>
</g>
<!-- CheckGenerateCodeCounter&#45;&gt;DisableSource -->
<g id="edge16" class="edge">
<title>CheckGenerateCodeCounter-&gt;DisableSource</title>
<path fill="none" stroke="#000000" d="M160.5638,-142.6915C171.335,-132.0719 185.085,-118.3219 197,-105.8 211.2431,-90.8314 226.7892,-73.6895 239.1056,-59.9096"/>
<polygon fill="#000000" stroke="#000000" points="241.9115,-62.0216 245.9499,-52.2266 236.6847,-57.3654 241.9115,-62.0216"/>
<text text-anchor="middle" x="275.3273" y="-93.2" font-family="Times,serif" font-size="14.00" fill="#000000">Counter &gt;= Threshold</text>
</g>
<!-- AppendFeedback&#45;&gt;AIDebug -->
<g id="edge17" class="edge">
<title>AppendFeedback-&gt;AIDebug</title>
<path fill="none" stroke="#000000" d="M59.7547,-52.1319C43.9681,-62.7993 29,-78.0228 29,-97.4 29,-272.4 29,-272.4 29,-272.4 29,-302.7747 54.5536,-324.3417 81.3574,-338.6089"/>
<polygon fill="#000000" stroke="#000000" points="79.9517,-341.8194 90.4601,-343.1697 83.0874,-335.5609 79.9517,-341.8194"/>
</g>
<!-- CleanAI&#45;&gt;CreateTable -->
<g id="edge21" class="edge">
<title>CleanAI-&gt;CreateTable</title>
<path fill="none" stroke="#000000" d="M148.7088,-728.1074C156.6035,-725.0238 164.958,-722.1818 173,-720.2 299.1078,-689.1225 334.6066,-704.6394 464,-693.4 474.8841,-692.4546 553.3114,-692.0232 562,-685.4 590.8935,-663.3747 570.9916,-639.5617 590,-608.6 603.9357,-585.9009 624.546,-564.0271 641.3567,-548.0732"/>
<polygon fill="#000000" stroke="#000000" points="643.8335,-550.5495 648.7755,-541.1779 639.0679,-545.4221 643.8335,-550.5495"/>
</g>
<!-- DisableSource&#45;&gt;IterateSources -->
<g id="edge18" class="edge">
<title>DisableSource-&gt;IterateSources</title>
<path fill="none" stroke="#000000" d="M289.3485,-52.1404C304.9532,-62.655 324.7765,-76.2903 342,-89 362.0618,-103.8041 370.6238,-104.1732 386,-123.8 412.4451,-157.5556 403.4802,-175.1083 426,-211.6 433.4155,-223.6163 442.9081,-235.9193 451.5601,-246.2865"/>
<polygon fill="#000000" stroke="#000000" points="449.1099,-248.8072 458.2628,-254.1433 454.4353,-244.264 449.1099,-248.8072"/>
</g>
<!-- SaveNews -->
<g id="node17" class="node">
<title>SaveNews</title>
<polygon fill="none" stroke="#000000" points="718.3477,-379.2 589.6523,-379.2 589.6523,-343.2 718.3477,-343.2 718.3477,-379.2"/>
<text text-anchor="middle" x="654" y="-357" font-family="Times,serif" font-size="14.00" fill="#000000">Save News to Table</text>
</g>
<!-- CreateTable&#45;&gt;SaveNews -->
<g id="edge9" class="edge">
<title>CreateTable-&gt;SaveNews</title>
<path fill="none" stroke="#000000" d="M668.1957,-504.754C665.4229,-476.7137 660.0913,-422.7988 656.8098,-389.6143"/>
<polygon fill="#000000" stroke="#000000" points="660.2894,-389.2346 655.8223,-379.6276 653.3234,-389.9235 660.2894,-389.2346"/>
</g>
<!-- SaveNews&#45;&gt;IterateSources -->
<g id="edge10" class="edge">
<title>SaveNews-&gt;IterateSources</title>
<path fill="none" stroke="#000000" d="M617.3447,-343.0157C589.2585,-329.0824 550.3552,-309.7829 520.3161,-294.8808"/>
<polygon fill="#000000" stroke="#000000" points="521.8137,-291.7168 511.3,-290.408 518.7028,-297.9876 521.8137,-291.7168"/>
</g>
<!-- LogWait -->
<g id="node19" class="node">
<title>LogWait</title>
<polygon fill="none" stroke="#000000" points="534.4776,-52 441.5224,-52 441.5224,-16 534.4776,-16 534.4776,-52"/>
<text text-anchor="middle" x="488" y="-29.8" font-family="Times,serif" font-size="14.00" fill="#000000">Log and Wait</text>
</g>
<!-- GarbageCollect&#45;&gt;LogWait -->
<g id="edge23" class="edge">
<title>GarbageCollect-&gt;LogWait</title>
<path fill="none" stroke="#000000" d="M491.4269,-142.6327C490.7645,-121.6352 489.6664,-86.8261 488.8921,-62.279"/>
<polygon fill="#000000" stroke="#000000" points="492.3857,-62.0183 488.572,-52.1336 485.3892,-62.2391 492.3857,-62.0183"/>
</g>
<!-- LogWait&#45;&gt;ReadSourceList -->
<g id="edge24" class="edge">
<title>LogWait-&gt;ReadSourceList</title>
<path fill="none" stroke="#000000" d="M441.4867,-40.6526C409.2147,-48.2017 372,-64.1217 372,-97.4 372,-228 372,-228 372,-228 372,-271.2195 372.4338,-282.0523 374.9242,-325.2 375.8495,-341.2316 378,-345.1417 378,-361.2 378,-523 378,-523 378,-523 378,-562.4936 413.3693,-592.6154 444.7059,-611.5526"/>
<polygon fill="#000000" stroke="#000000" points="442.9981,-614.6081 453.4048,-616.5958 446.509,-608.5522 442.9981,-614.6081"/>
<text text-anchor="middle" x="429.0379" y="-312.6" font-family="Times,serif" font-size="14.00" fill="#000000">Wait Time Elapsed</text>
</g>
</g>
</svg>