<?xml version="1.0" encoding="UTF-8" standalone="no"?><!DOCTYPE svg PUBLIC "-//W3C//DTD SVG 1.1//EN" "http://www.w3.org/Graphics/SVG/1.1/DTD/svg11.dtd"><!-- Generated by graphviz version 2.40.1 (20161225.0304)
 --><!-- Title: G Pages: 1 --><svg xmlns="http://www.w3.org/2000/svg" xmlns:xlink="http://www.w3.org/1999/xlink" width="725pt" height="644pt" viewBox="0.00 0.00 725.00 643.60">
<g id="graph0" class="graph" transform="scale(1 1) rotate(0) translate(4 639.6)">
<title>G</title>
<polygon fill="#ffffff" stroke="transparent" points="-4,4 -4,-639.6 721,-639.6 721,4 -4,4"/>
<g id="clust1" class="cluster">
<title>cluster_0</title>
<polygon fill="none" stroke="#000000" points="74,-393.6 74,-627.6 228,-627.6 228,-393.6 74,-393.6"/>
<text text-anchor="middle" x="151" y="-611" font-family="Times,serif" font-size="14.00" fill="#000000">Initialization</text>
</g>
<g id="clust2" class="cluster">
<title>cluster_1</title>
<polygon fill="none" stroke="#000000" points="236,-393.6 236,-624.8 445,-624.8 445,-393.6 236,-393.6"/>
<text text-anchor="middle" x="340.5" y="-608.2" font-family="Times,serif" font-size="14.00" fill="#000000">URL Check and Image Processing</text>
</g>
<g id="clust3" class="cluster">
<title>cluster_2</title>
<polygon fill="none" stroke="#000000" points="453,-236.8 453,-545.2 709,-545.2 709,-236.8 453,-236.8"/>
<text text-anchor="middle" x="581" y="-528.6" font-family="Times,serif" font-size="14.00" fill="#000000">Webpage Information Extraction</text>
</g>
<g id="clust4" class="cluster">
<title>cluster_3</title>
<polygon fill="none" stroke="#000000" points="468,-8 468,-228.8 694,-228.8 694,-8 468,-8"/>
<text text-anchor="middle" x="581" y="-212.2" font-family="Times,serif" font-size="14.00" fill="#000000">Data Organization and Saving</text>
</g>
<g id="clust5" class="cluster">
<title>cluster_4</title>
<polygon fill="none" stroke="#000000" points="8,-80 8,-385.6 294,-385.6 294,-80 8,-80"/>
<text text-anchor="middle" x="151" y="-369" font-family="Times,serif" font-size="14.00" fill="#000000">Worker Thread Management</text>
</g>
<!-- ThreadSafeDict -->
<g id="node1" class="node">
<title>ThreadSafeDict</title>
<polygon fill="none" stroke="#000000" points="203.1179,-594.6019 98.8821,-594.6019 98.8821,-553.3981 203.1179,-553.3981 203.1179,-594.6019"/>
<text text-anchor="middle" x="151" y="-578.2" font-family="Times,serif" font-size="14.00" fill="#000000">Initialize</text>
<text text-anchor="middle" x="151" y="-561.4" font-family="Times,serif" font-size="14.00" fill="#000000">ThreadSafeDict</text>
</g>
<!-- ScrapeWorker -->
<g id="node2" class="node">
<title>ScrapeWorker</title>
<polygon fill="none" stroke="#000000" points="199.3375,-515.0019 102.6625,-515.0019 102.6625,-473.7981 199.3375,-473.7981 199.3375,-515.0019"/>
<text text-anchor="middle" x="151" y="-498.6" font-family="Times,serif" font-size="14.00" fill="#000000">Initialize</text>
<text text-anchor="middle" x="151" y="-481.8" font-family="Times,serif" font-size="14.00" fill="#000000">ScrapeWorker</text>
</g>
<!-- ThreadSafeDict&#45;&gt;ScrapeWorker -->
<g id="edge1" class="edge">
<title>ThreadSafeDict-&gt;ScrapeWorker</title>
<path fill="none" stroke="#000000" d="M151,-553.086C151,-544.5853 151,-534.5882 151,-525.2778"/>
<polygon fill="#000000" stroke="#000000" points="154.5001,-525.1742 151,-515.1743 147.5001,-525.1743 154.5001,-525.1742"/>
</g>
<!-- StartThreads -->
<g id="node3" class="node">
<title>StartThreads</title>
<polygon fill="none" stroke="#000000" points="219.7767,-437.6 82.2233,-437.6 82.2233,-401.6 219.7767,-401.6 219.7767,-437.6"/>
<text text-anchor="middle" x="151" y="-415.4" font-family="Times,serif" font-size="14.00" fill="#000000">Start Worker Threads</text>
</g>
<!-- ScrapeWorker&#45;&gt;StartThreads -->
<g id="edge2" class="edge">
<title>ScrapeWorker-&gt;StartThreads</title>
<path fill="none" stroke="#000000" d="M151,-473.564C151,-465.6614 151,-456.5223 151,-448.0373"/>
<polygon fill="#000000" stroke="#000000" points="154.5001,-447.7816 151,-437.7816 147.5001,-447.7816 154.5001,-447.7816"/>
</g>
<!-- ReadFromDB -->
<g id="node14" class="node">
<title>ReadFromDB</title>
<polygon fill="none" stroke="#000000" points="274.0342,-352.8 27.9658,-352.8 27.9658,-316.8 274.0342,-316.8 274.0342,-352.8"/>
<text text-anchor="middle" x="151" y="-330.6" font-family="Times,serif" font-size="14.00" fill="#000000">Read Unprocessed News URLs from DB</text>
</g>
<!-- StartThreads&#45;&gt;ReadFromDB -->
<g id="edge13" class="edge">
<title>StartThreads-&gt;ReadFromDB</title>
<path fill="none" stroke="#000000" d="M151,-401.1997C151,-390.0112 151,-375.4983 151,-362.8954"/>
<polygon fill="#000000" stroke="#000000" points="154.5001,-362.8731 151,-352.8731 147.5001,-362.8731 154.5001,-362.8731"/>
</g>
<!-- CheckURL -->
<g id="node4" class="node">
<title>CheckURL</title>
<polygon fill="none" stroke="#000000" points="434.2506,-592 291.7494,-592 291.7494,-556 434.2506,-556 434.2506,-592"/>
<text text-anchor="middle" x="363" y="-569.8" font-family="Times,serif" font-size="14.00" fill="#000000">Check if URL is Valid</text>
</g>
<!-- DownloadImage -->
<g id="node5" class="node">
<title>DownloadImage</title>
<polygon fill="none" stroke="#000000" points="425.0143,-515.0019 288.9857,-515.0019 288.9857,-473.7981 425.0143,-473.7981 425.0143,-515.0019"/>
<text text-anchor="middle" x="357" y="-498.6" font-family="Times,serif" font-size="14.00" fill="#000000">Download Image and</text>
<text text-anchor="middle" x="357" y="-481.8" font-family="Times,serif" font-size="14.00" fill="#000000">Convert to Base64</text>
</g>
<!-- CheckURL&#45;&gt;DownloadImage -->
<g id="edge3" class="edge">
<title>CheckURL-&gt;DownloadImage</title>
<path fill="none" stroke="#000000" d="M361.6385,-555.9375C360.9539,-546.8553 360.1051,-535.5946 359.3215,-525.1986"/>
<polygon fill="#000000" stroke="#000000" points="362.8099,-524.9121 358.5681,-515.2035 355.8297,-525.4383 362.8099,-524.9121"/>
</g>
<!-- LaunchBrowser -->
<g id="node7" class="node">
<title>LaunchBrowser</title>
<polygon fill="none" stroke="#000000" points="636.8417,-512.4 463.1583,-512.4 463.1583,-476.4 636.8417,-476.4 636.8417,-512.4"/>
<text text-anchor="middle" x="550" y="-490.2" font-family="Times,serif" font-size="14.00" fill="#000000">Launch Playwright Browser</text>
</g>
<!-- CheckURL&#45;&gt;LaunchBrowser -->
<g id="edge14" class="edge">
<title>CheckURL-&gt;LaunchBrowser</title>
<path fill="none" stroke="#000000" d="M420.7841,-555.9151C430.2968,-552.5771 439.9879,-548.9528 449,-545.2 468.7503,-536.9755 489.9922,-526.5452 507.875,-517.2785"/>
<polygon fill="#000000" stroke="#000000" points="509.6587,-520.2954 516.8947,-512.5564 506.412,-514.0938 509.6587,-520.2954"/>
</g>
<!-- ResizeImage -->
<g id="node6" class="node">
<title>ResizeImage</title>
<polygon fill="none" stroke="#000000" points="437.0422,-437.6 270.9578,-437.6 270.9578,-401.6 437.0422,-401.6 437.0422,-437.6"/>
<text text-anchor="middle" x="354" y="-415.4" font-family="Times,serif" font-size="14.00" fill="#000000">Resize Image if Too Large</text>
</g>
<!-- DownloadImage&#45;&gt;ResizeImage -->
<g id="edge4" class="edge">
<title>DownloadImage-&gt;ResizeImage</title>
<path fill="none" stroke="#000000" d="M356.1643,-473.564C355.8474,-465.6614 355.4808,-456.5223 355.1405,-448.0373"/>
<polygon fill="#000000" stroke="#000000" points="358.6272,-447.6333 354.7292,-437.7816 351.6329,-447.9138 358.6272,-447.6333"/>
</g>
<!-- VisitURL -->
<g id="node8" class="node">
<title>VisitURL</title>
<polygon fill="none" stroke="#000000" points="656.7323,-437.6 475.2677,-437.6 475.2677,-401.6 656.7323,-401.6 656.7323,-437.6"/>
<text text-anchor="middle" x="566" y="-415.4" font-family="Times,serif" font-size="14.00" fill="#000000">Visit URL and Wait for Load</text>
</g>
<!-- LaunchBrowser&#45;&gt;VisitURL -->
<g id="edge5" class="edge">
<title>LaunchBrowser-&gt;VisitURL</title>
<path fill="none" stroke="#000000" d="M553.8732,-476.293C555.707,-467.7199 557.9392,-457.2844 559.9862,-447.7147"/>
<polygon fill="#000000" stroke="#000000" points="563.4378,-448.3104 562.1071,-437.7995 556.5927,-446.8462 563.4378,-448.3104"/>
</g>
<!-- ExtractContent -->
<g id="node9" class="node">
<title>ExtractContent</title>
<polygon fill="none" stroke="#000000" points="701.2914,-352.8 460.7086,-352.8 460.7086,-316.8 701.2914,-316.8 701.2914,-352.8"/>
<text text-anchor="middle" x="581" y="-330.6" font-family="Times,serif" font-size="14.00" fill="#000000">Extract Text and Images from Webpage</text>
</g>
<!-- VisitURL&#45;&gt;ExtractContent -->
<g id="edge6" class="edge">
<title>VisitURL-&gt;ExtractContent</title>
<path fill="none" stroke="#000000" d="M569.2548,-401.1997C571.2339,-390.0112 573.801,-375.4983 576.0303,-362.8954"/>
<polygon fill="#000000" stroke="#000000" points="579.5077,-363.3299 577.8031,-352.8731 572.6147,-362.1106 579.5077,-363.3299"/>
</g>
<!-- CallImageProcessing -->
<g id="node10" class="node">
<title>CallImageProcessing</title>
<polygon fill="none" stroke="#000000" points="678.7436,-280.8 483.2564,-280.8 483.2564,-244.8 678.7436,-244.8 678.7436,-280.8"/>
<text text-anchor="middle" x="581" y="-258.6" font-family="Times,serif" font-size="14.00" fill="#000000">Call Image Processing Function</text>
</g>
<!-- ExtractContent&#45;&gt;CallImageProcessing -->
<g id="edge7" class="edge">
<title>ExtractContent-&gt;CallImageProcessing</title>
<path fill="none" stroke="#000000" d="M581,-316.6314C581,-308.931 581,-299.7743 581,-291.2166"/>
<polygon fill="#000000" stroke="#000000" points="584.5001,-291.2132 581,-281.2133 577.5001,-291.2133 584.5001,-291.2132"/>
</g>
<!-- OrganizeData -->
<g id="node11" class="node">
<title>OrganizeData</title>
<polygon fill="none" stroke="#000000" points="685.605,-196 476.395,-196 476.395,-160 685.605,-160 685.605,-196"/>
<text text-anchor="middle" x="581" y="-173.8" font-family="Times,serif" font-size="14.00" fill="#000000">Organize Data into HTML Format</text>
</g>
<!-- CallImageProcessing&#45;&gt;OrganizeData -->
<g id="edge15" class="edge">
<title>CallImageProcessing-&gt;OrganizeData</title>
<path fill="none" stroke="#000000" d="M581,-244.3997C581,-233.2112 581,-218.6983 581,-206.0954"/>
<polygon fill="#000000" stroke="#000000" points="584.5001,-206.0731 581,-196.0731 577.5001,-206.0731 584.5001,-206.0731"/>
</g>
<!-- SaveHTML -->
<g id="node12" class="node">
<title>SaveHTML</title>
<polygon fill="none" stroke="#000000" points="658.979,-124 503.021,-124 503.021,-88 658.979,-88 658.979,-124"/>
<text text-anchor="middle" x="581" y="-101.8" font-family="Times,serif" font-size="14.00" fill="#000000">Save HTML File to Disk</text>
</g>
<!-- OrganizeData&#45;&gt;SaveHTML -->
<g id="edge8" class="edge">
<title>OrganizeData-&gt;SaveHTML</title>
<path fill="none" stroke="#000000" d="M581,-159.8314C581,-152.131 581,-142.9743 581,-134.4166"/>
<polygon fill="#000000" stroke="#000000" points="584.5001,-134.4132 581,-124.4133 577.5001,-134.4133 584.5001,-134.4132"/>
</g>
<!-- LogData -->
<g id="node13" class="node">
<title>LogData</title>
<polygon fill="none" stroke="#000000" points="615.4807,-52 546.5193,-52 546.5193,-16 615.4807,-16 615.4807,-52"/>
<text text-anchor="middle" x="581" y="-29.8" font-family="Times,serif" font-size="14.00" fill="#000000">Log Data</text>
</g>
<!-- SaveHTML&#45;&gt;LogData -->
<g id="edge9" class="edge">
<title>SaveHTML-&gt;LogData</title>
<path fill="none" stroke="#000000" d="M581,-87.8314C581,-80.131 581,-70.9743 581,-62.4166"/>
<polygon fill="#000000" stroke="#000000" points="584.5001,-62.4132 581,-52.4133 577.5001,-62.4133 584.5001,-62.4132"/>
</g>
<!-- AddToQueue -->
<g id="node15" class="node">
<title>AddToQueue</title>
<polygon fill="none" stroke="#000000" points="229.2408,-280.8 72.7592,-280.8 72.7592,-244.8 229.2408,-244.8 229.2408,-280.8"/>
<text text-anchor="middle" x="151" y="-258.6" font-family="Times,serif" font-size="14.00" fill="#000000">Add URL to Task Queue</text>
</g>
<!-- ReadFromDB&#45;&gt;AddToQueue -->
<g id="edge10" class="edge">
<title>ReadFromDB-&gt;AddToQueue</title>
<path fill="none" stroke="#000000" d="M151,-316.6314C151,-308.931 151,-299.7743 151,-291.2166"/>
<polygon fill="#000000" stroke="#000000" points="154.5001,-291.2132 151,-281.2133 147.5001,-291.2133 154.5001,-291.2132"/>
</g>
<!-- GetFromQueue -->
<g id="node16" class="node">
<title>GetFromQueue</title>
<polygon fill="none" stroke="#000000" points="285.5822,-196 16.4178,-196 16.4178,-160 285.5822,-160 285.5822,-196"/>
<text text-anchor="middle" x="151" y="-173.8" font-family="Times,serif" font-size="14.00" fill="#000000">Get URL from Task Queue and Start Process</text>
</g>
<!-- AddToQueue&#45;&gt;GetFromQueue -->
<g id="edge11" class="edge">
<title>AddToQueue-&gt;GetFromQueue</title>
<path fill="none" stroke="#000000" d="M151,-244.3997C151,-233.2112 151,-218.6983 151,-206.0954"/>
<polygon fill="#000000" stroke="#000000" points="154.5001,-206.0731 151,-196.0731 147.5001,-206.0731 154.5001,-206.0731"/>
</g>
<!-- UpdateDB -->
<g id="node17" class="node">
<title>UpdateDB</title>
<polygon fill="none" stroke="#000000" points="248.6357,-124 53.3643,-124 53.3643,-88 248.6357,-88 248.6357,-124"/>
<text text-anchor="middle" x="151" y="-101.8" font-family="Times,serif" font-size="14.00" fill="#000000">Update Processing Status in DB</text>
</g>
<!-- GetFromQueue&#45;&gt;UpdateDB -->
<g id="edge12" class="edge">
<title>GetFromQueue-&gt;UpdateDB</title>
<path fill="none" stroke="#000000" d="M151,-159.8314C151,-152.131 151,-142.9743 151,-134.4166"/>
<polygon fill="#000000" stroke="#000000" points="154.5001,-134.4132 151,-124.4133 147.5001,-134.4133 154.5001,-134.4132"/>
</g>
</g>
</svg>